<mxfile host="app.diagrams.net" modified="2024-02-28T12:49:53.423Z" agent="Mozilla/5.0 (X11; Linux x86_64) AppleWebKit/537.36 (KHTML, like Gecko) Chrome/121.0.0.0 Safari/537.36" version="23.0.2" etag="YEAOqJZ1zsognPGw87TG" type="github">
  <diagram name="Page-1" id="UlIAKvHG2GFeR2XyAceB">
    <mxGraphModel>
      <root>
        <mxCell id="0" />
        <mxCell id="1" parent="0" />
      </root>
    </mxGraphModel>
  </diagram>
</mxfile>
